# xmcd
# Track frame offsets:
# 150
# 10790
# 24815
# 45745
# 57152
# 69382
# 81455
# 94125
# 104360
# 116375
# 133057
# 144072
# 157667
# 168105
# 178322
# 187602
# 199087
# 210190
# 220140
# 232370
#
# Disc length: 3248 seconds
# Revision: 0
# Processed by: cddbd v1.5.1PL0 Copyright (c) Steve Scherf et al.
# Submitted via: VisiTrax 2.9.10.220 - For more info visit www.synapsa.com
#
DISCID=010cae14
DTITLE=Johnny Winter - White Gold Blues
DYEAR=1970
DGENRE=
TTITLE0=Out Of Sight
TTITLE1=Low Down Gal Of mine
TTITLE2=Going down Slow
TTITLE3=Avocado green
TTITLE4=Parchman Farm
TTITLE5=Livin' the Blues
TTITLE6=Leavin' Blues
TTITLE7=38-32-20
TTITLE8=Bad News
TTITLE9=Kind Hearted Woman
TTITLE10=Oh My Darlin'
TTITLE11=Five After $ A.M.
TTITLE12=That's What Love Does
TTITLE13=Shed so Many tears
TTITLE14=Road runner
TTITLE15=The guy You Left Behind
TTITLE16=Ganster Of Love
TTITLE17=By the Light Of Silvery moon
TTITLE18=Leave My woman Alone
TTITLE19=I Can't Belive §You Want To Leave
EXTD=
EXTT0=
EXTT1=
EXTT2=
EXTT3=
EXTT4=
EXTT5=
EXTT6=
EXTT7=
EXTT8=
EXTT9=
EXTT10=
EXTT11=
EXTT12=
EXTT13=
EXTT14=
EXTT15=
EXTT16=
EXTT17=
EXTT18=
EXTT19=
PLAYORDER=
